<svg xmlns="http://www.w3.org/2000/svg" viewBox="0 0 1024 1024" width="1024" height="1024"><g fill="#64B5F6"><path transform="translate(319,640)" d="M221.09 30.02 L221.09 70.13 L189.59 70.13 Q137.31 70.13 119.57 54.59 Q101.83 39.05 101.83 -7.35 L101.83 -52.49 Q101.83 -84.19 90.60 -96.27 Q79.37 -108.34 49.97 -108.34 L36.95 -108.34 L36.95 -148.44 L49.97 -148.44 Q79.37 -148.44 90.60 -160.41 Q101.83 -172.38 101.83 -204.29 L101.83 -249.43 Q101.83 -295.83 119.57 -311.27 Q137.31 -326.70 189.59 -326.70 L221.09 -326.70 L221.09 -286.81 L195.26 -286.81 Q173.43 -286.81 166.08 -277.99 Q158.73 -269.17 158.73 -239.15 L158.73 -195.26 Q158.73 -160.62 148.44 -146.55 Q138.15 -132.49 111.70 -128.50 Q138.15 -124.09 148.44 -109.81 Q158.73 -95.53 158.73 -61.10 L158.73 -18.06 Q158.73 12.18 166.08 21.10 Q173.43 30.02 195.26 30.02 Z"/><path transform="translate(679,640)" d="M37.79 30.02 L63.20 30.02 Q85.03 30.02 92.59 21.00 Q100.15 11.97 100.15 -18.06 L100.15 -61.10 Q100.15 -95.53 110.44 -109.81 Q120.73 -124.09 146.97 -128.50 Q120.52 -132.49 110.33 -146.55 Q100.15 -160.62 100.15 -195.26 L100.15 -239.15 Q100.15 -268.75 92.70 -277.78 Q85.24 -286.81 63.20 -286.81 L37.79 -286.81 L37.79 -326.70 L69.29 -326.70 Q121.36 -326.70 138.89 -311.27 Q156.42 -295.83 156.42 -249.43 L156.42 -204.29 Q156.42 -172.59 167.86 -160.52 Q179.31 -148.44 208.91 -148.44 L221.93 -148.44 L221.93 -108.34 L208.91 -108.34 Q179.31 -108.34 167.86 -96.16 Q156.42 -83.98 156.42 -52.49 L156.42 -7.35 Q156.42 39.05 138.89 54.59 Q121.36 70.13 69.29 70.13 L37.79 70.13 Z"/></g></svg>
