<svg xmlns="http://www.w3.org/2000/svg" viewBox="0 0 1024 1024" width="1024" height="1024"><g fill="#E3F2FD"><path transform="translate(89,640)" d="M145.71 -110.86 L145.71 -47.45 Q158.94 -49.34 166.29 -57.63 Q173.64 -65.93 173.64 -78.74 Q173.64 -91.75 166.39 -100.05 Q159.15 -108.34 145.71 -110.86 Z M116.11 -171.54 L116.11 -230.96 Q103.09 -229.28 96.48 -222.24 Q89.86 -215.21 89.86 -203.03 Q89.86 -191.06 96.48 -183.09 Q103.09 -175.11 116.11 -171.54 Z M145.71 63.20 L116.11 63.20 L115.90 -0.00 Q97.63 -0.63 77.69 -5.46 Q57.74 -10.29 36.11 -19.32 L36.11 -74.33 Q57.74 -61.52 78.00 -54.59 Q98.26 -47.66 116.11 -47.45 L116.11 -116.53 Q74.75 -124.72 54.59 -144.77 Q34.43 -164.82 34.43 -197.78 Q34.43 -232.85 55.85 -253.63 Q77.27 -274.42 116.11 -276.94 L116.11 -326.70 L145.71 -326.70 L145.92 -276.94 Q160.83 -276.10 176.89 -273.16 Q192.95 -270.22 209.75 -264.97 L209.75 -211.22 Q196.73 -219.62 180.78 -224.66 Q164.82 -229.70 145.71 -230.96 L145.71 -166.50 Q187.08 -159.99 208.18 -138.26 Q229.28 -116.53 229.28 -80.42 Q229.28 -45.98 206.50 -23.94 Q183.72 -1.89 145.92 -0.00 Z"/></g></svg>
